{
    "asset" : {
        "generator" : "Khronos glTF Blender I/O v3.2.40",
        "version" : "2.0"
    },
    "scene" : 0,
    "scenes" : [
        {
            "name" : "Scene",
            "nodes" : [
                0
            ]
        }
    ],
    "nodes" : [
        {
            "mesh" : 0,
            "name" : "NavMesh"
        }
    ],
    "materials" : [
        {
            "alphaCutoff" : 0.5,
            "alphaMode" : "MASK",
            "doubleSided" : true,
            "name" : "nav.001",
            "pbrMetallicRoughness" : {
                "baseColorFactor" : [
                    0.800000011920929,
                    0.800000011920929,
                    0.800000011920929,
                    0
                ],
                "metallicFactor" : 0,
                "roughnessFactor" : 0
            }
        }
    ],
    "meshes" : [
        {
            "name" : "Cylinder",
            "primitives" : [
                {
                    "attributes" : {
                        "POSITION" : 0,
                        "NORMAL" : 1,
                        "TEXCOORD_0" : 2
                    },
                    "indices" : 3,
                    "material" : 0
                }
            ]
        }
    ],
    "accessors" : [
        {
            "bufferView" : 0,
            "componentType" : 5126,
            "count" : 549,
            "max" : [
                7.7473602294921875,
                4.034080120618455e-05,
                7.7473602294921875
            ],
            "min" : [
                -7.7473602294921875,
                -3.528275328790187e-06,
                -7.7473602294921875
            ],
            "type" : "VEC3"
        },
        {
            "bufferView" : 1,
            "componentType" : 5126,
            "count" : 549,
            "type" : "VEC3"
        },
        {
            "bufferView" : 2,
            "componentType" : 5126,
            "count" : 549,
            "type" : "VEC2"
        },
        {
            "bufferView" : 3,
            "componentType" : 5123,
            "count" : 549,
            "type" : "SCALAR"
        }
    ],
    "bufferViews" : [
        {
            "buffer" : 0,
            "byteLength" : 6588,
            "byteOffset" : 0
        },
        {
            "buffer" : 0,
            "byteLength" : 6588,
            "byteOffset" : 6588
        },
        {
            "buffer" : 0,
            "byteLength" : 4392,
            "byteOffset" : 13176
        },
        {
            "buffer" : 0,
            "byteLength" : 1098,
            "byteOffset" : 17568
        }
    ],
    "buffers" : [
        {
            "byteLength" : 18668,
            "uri" : "data:application/octet-stream;base64,"
        }
    ]
}
